<svg xmlns="http://www.w3.org/2000/svg" width="195" height="234" viewBox="0 0 195 234"><defs><style>.a{fill:#505050;}.b{fill:#fbbf51;}</style></defs><g transform="translate(-1690 -1308.775)"><path class="a" d="M1824.063,1414.782h-8.125v-8.154h8.125Zm0-16.309h-8.125c0-17.674-12.62-34.628-18.048-41.094l6.213-5.255C1810.106,1359.279,1824.063,1378.116,1824.063,1398.473Zm-58.676-23.411-7.26-3.671a101.211,101.211,0,0,1,12.623-19.092l6.229,5.24A92.531,92.531,0,0,0,1765.387,1375.062Zm17.995-24.4-5.594-5.917a55.894,55.894,0,0,1,5.5-4.654l4.761,6.61A46.307,46.307,0,0,0,1783.382,1350.658Z"/><path class="a" d="M1832.188,1471.863h-32.5v-8.155h32.5v-65.235c0-34.914-34.968-69.311-44.687-69.311s-44.688,34.4-44.688,69.311v65.235h32.5v8.155h-32.5a8.15,8.15,0,0,1-8.125-8.155v-65.235c0-36.949,37.07-77.466,52.813-77.466s52.813,40.517,52.813,77.466v65.235A8.151,8.151,0,0,1,1832.188,1471.863Z"/><rect class="a" width="36.562" height="8.154" transform="translate(1738.75 1431.091)"/><rect class="a" width="36.562" height="8.154" transform="translate(1799.688 1431.091)"/><path class="a" d="M1787.5,1484.095a16.3,16.3,0,0,1-16.25-16.309v-69.312a16.25,16.25,0,1,1,32.5,0v69.312A16.3,16.3,0,0,1,1787.5,1484.095Zm0-93.775a8.151,8.151,0,0,0-8.125,8.154v69.312a8.125,8.125,0,1,0,16.25,0v-69.312A8.151,8.151,0,0,0,1787.5,1390.319Z"/><rect class="a" width="8.125" height="8.154" transform="translate(1694.063 1378.088)"/><rect class="a" width="8.125" height="24.463" transform="translate(1694.063 1345.47)"/><rect class="a" width="8.125" height="8.154" transform="translate(1722.5 1349.547)"/><rect class="a" width="8.125" height="24.463" transform="translate(1722.5 1316.93)"/><rect class="a" width="8.125" height="8.154" transform="translate(1840.313 1341.393)"/><rect class="a" width="8.125" height="24.463" transform="translate(1840.313 1308.776)"/><rect class="a" width="8.125" height="8.154" transform="translate(1876.875 1382.165)"/><rect class="a" width="8.125" height="24.463" transform="translate(1876.875 1349.547)"/><path class="a" d="M1748.505,1525.181l-5.959-5.543a16.269,16.269,0,0,0,4.329-11.081v-40.772H1755v40.772A24.413,24.413,0,0,1,1748.505,1525.181Z"/><path class="a" d="M1730.625,1533.021a24.463,24.463,0,1,1,8.768-47.3l-2.92,7.613a16.317,16.317,0,1,0,6.074,26.3l6.761-7.318a24.355,24.355,0,0,1,42.255,16.624h-8.125a16.237,16.237,0,0,0-28.171-11.082l-6.761,7.319A24.411,24.411,0,0,1,1730.625,1533.021Z"/><path class="a" d="M1787.822,1518.085l-7.958-1.624c2.36-11.667,12.406-20.135,23.887-20.135a24.413,24.413,0,0,1,17.881,7.839l1.487,1.78-6.236,5.224-1.349-1.621a16.2,16.2,0,0,0-11.784-5.069C1796.24,1504.48,1789.392,1510.329,1787.822,1518.085Z"/><path class="a" d="M1840.313,1533.021a24.445,24.445,0,0,1-24.375-24.463v-40.772h8.125v40.772a16.245,16.245,0,1,0,10.4-15.222l-2.92-7.613a24.448,24.448,0,1,1,8.768,47.3Z"/><path class="a" d="M1698.125,1508.557H1690a40.911,40.911,0,0,1,.877-8.465l7.95,1.7A32.546,32.546,0,0,0,1698.125,1508.557Z"/><path class="a" d="M1707.389,1542a40.8,40.8,0,0,1-16.079-23.137l7.864-2.055a32.672,32.672,0,0,0,12.866,18.51Z"/><path class="a" d="M1869.2,1542.776l-5.253-6.22a36.962,36.962,0,0,0,11.949-19.549l7.911,1.872A45.173,45.173,0,0,1,1869.2,1542.776Z"/><path class="a" d="M1885,1508.557h-8.125a37.189,37.189,0,0,0-.591-6.6l8-1.449A45.56,45.56,0,0,1,1885,1508.557Z"/><path class="a" d="M1710.313,1475.941a16.3,16.3,0,0,1-16.25-16.309v-30.344c0-23.333,18.6-43.046,40.625-43.046h4.642v8.155h-4.642c-17.619,0-32.5,15.978-32.5,34.891v30.344a8.125,8.125,0,1,0,16.25,0v-4.078c0-10.67,9.68-20.385,20.312-20.385v8.154c-6.863,0-12.187,6.574-12.187,12.231v4.078A16.3,16.3,0,0,1,1710.313,1475.941Z"/><path class="a" d="M1864.688,1475.941a16.3,16.3,0,0,1-16.25-16.309v-4.078c0-5.657-5.324-12.231-12.188-12.231v-8.154c10.633,0,20.312,9.715,20.312,20.385v4.078a8.125,8.125,0,1,0,16.25,0v-30.344c0-18.912-14.881-34.891-32.5-34.891h-4.641v-8.155h4.641c22.022,0,40.625,19.713,40.625,43.046v30.344A16.3,16.3,0,0,1,1864.688,1475.941Z"/></g><path class="b" d="M501.95,1692.78a36.964,36.964,0,0,0,11.949-19.55l7.911,1.873A45.18,45.18,0,0,1,507.2,1699Zm-172.642-17.69,7.864-2.055a32.667,32.667,0,0,0,12.866,18.511l-4.65,6.681A40.807,40.807,0,0,1,329.308,1675.09Zm124.677-8.773-.453-.544a16.207,16.207,0,0,0-11.784-5.068c-7.008,0-13.441,5.095-15.545,12.081a24.382,24.382,0,0,1,3.358,12.382h-8.125a16.236,16.236,0,0,0-28.171-11.081l-6.761,7.318a24.436,24.436,0,1,1-9.112-39.458l-2.921,7.612a16.341,16.341,0,1,0,10.4,15.222v-36.694h-4.064a8.15,8.15,0,0,1-8.124-8.155v-19.595c-4.792,1.913-8.125,6.964-8.125,11.44v4.078a16.25,16.25,0,1,1-32.5,0v-30.344c0-23.333,18.6-43.045,40.625-43.045h1.262c6.614-33.122,37.535-65.235,51.551-65.235s44.936,32.113,51.551,65.235h1.261c22.023,0,40.625,19.712,40.625,43.045v30.344a16.25,16.25,0,1,1-32.5,0v-4.078c0-4.476-3.334-9.526-8.125-11.44v19.595a8.151,8.151,0,0,1-8.125,8.155h-8.125v36.694a16.243,16.243,0,1,0,10.4-15.222l-2.92-7.612a24.481,24.481,0,1,1-15.559,24.369Zm-33.745-.377a24.055,24.055,0,0,1,33.7-10.1v-27.749h-12.7a16.238,16.238,0,0,1-31.471,0H393v35.9a24.254,24.254,0,0,1,27.24,1.949ZM417.374,1554.7v69.314a8.125,8.125,0,1,0,16.25,0V1554.7a8.125,8.125,0,1,0-16.25,0Zm60.938,0v37.166c8.914,2.062,16.249,10.627,16.249,19.914v4.078a8.125,8.125,0,1,0,16.25,0v-30.344c0-18.913-14.882-34.89-32.5-34.89h-.147Q478.311,1552.664,478.312,1554.7Zm-138.125,30.815v30.344a8.125,8.125,0,1,0,16.25,0v-4.078c0-9.287,7.337-17.852,16.25-19.916V1554.7q0-2.033.147-4.075h-.147C355.068,1550.622,340.187,1566.6,340.187,1585.512Zm101.561,34.42h28.438v-24.462H441.749Zm-60.937,0H409.25v-24.462H380.812Zm60.937-65.236v32.618h28.438V1554.7c0-34.914-34.968-69.312-44.687-69.312s-44.689,34.4-44.689,69.312v32.618H409.25V1554.7a16.25,16.25,0,1,1,32.5,0Zm73.126,110.084a37.212,37.212,0,0,0-.591-6.6l8-1.449a45.509,45.509,0,0,1,.718,8.05Zm-186.875,0a40.937,40.937,0,0,1,.877-8.464l7.951,1.7a32.479,32.479,0,0,0-.7,6.767Zm125.938-93.776v-8.153h8.124v8.153Zm0-16.309c0-17.673-12.62-34.627-18.048-41.093l6.213-5.256c6,7.156,19.959,25.993,19.959,46.349Zm60.937-8.154v-8.153H523v8.153Zm-182.812-4.076v-8.155h8.125v8.155Zm64.064-14.852a101.264,101.264,0,0,1,12.623-19.093l6.229,5.241a92.494,92.494,0,0,0-11.592,17.524Zm118.749,2.62v-24.463H523v24.463Zm-182.812-4.078v-24.463h8.125v24.463Zm28.437-12.23v-8.155h8.125v8.155Zm55.288-12.962a55.94,55.94,0,0,1,5.5-4.654l4.761,6.609a46.44,46.44,0,0,0-4.67,3.962Zm62.525,4.807v-8.155h8.125v8.155ZM360.5,1497.617v-24.463h8.125v24.463Zm117.813-8.155V1465h8.125v24.463Z" transform="translate(-328 -1464.999)"/></svg>