<svg xmlns="http://www.w3.org/2000/svg" width="323.001" height="82.001" viewBox="0 0 323.001 82.001"><defs><style>.a{fill:#95264f;}.b{fill:#fbbf51;}</style></defs><g transform="translate(-416.311 -399.835)"><path class="a" d="M474.24,419.028l-22.821-17.447H416.311v78.511h35.108V462.645l22.821,17.447,22.821-17.447v17.447H532.17V401.581H497.061Z"/><rect class="a" width="35.109" height="78.511" transform="translate(539.191 401.581)"/><path class="a" d="M718.245,426.007V405.084a41.361,41.361,0,0,0-59.7,23.943c0-.135.01-.268.01-.4A27.114,27.114,0,0,0,632.23,401.6v-.022H581.321v78.511h80.75l-17.554-26.17-.614-1.307a27.176,27.176,0,0,0,13.02-14.734c-.07.978-.118,1.961-.118,2.956a41.254,41.254,0,0,0,82.505,0,40.681,40.681,0,0,0-9.571-26.253Z"/><path class="a" d="M721.756,399.836v17.447l17.555-17.447Z"/></g><path class="b" d="M999.494,7106c0-1,.048-1.979.118-2.956a27.176,27.176,0,0,1-13.02,14.733l.613,1.308,17.555,26.169H924.01v-78.51h50.908l0,.021a27.114,27.114,0,0,1,26.329,27.021c0,.134-.007.269-.009.4a41.361,41.361,0,0,1,59.695-23.943v20.923l11.494-11.424A40.683,40.683,0,0,1,1082,7106a41.254,41.254,0,0,1-82.507,0ZM881.88,7145.255v-78.51H916.99v78.51Zm-42.131,0v-17.447l-22.821,17.447-22.821-17.447v17.447H759v-78.51h35.107l22.821,17.447,22.821-17.447h35.109v78.51Zm224.7-80.254H1082l-17.555,17.445Z" transform="translate(-759 -7065)"/></svg>