<svg xmlns="http://www.w3.org/2000/svg" width="460" height="117.001" viewBox="0 0 460 117.001"><defs><style>.a{fill:#95264f;}.b{fill:#fbbf51;}</style></defs><g transform="translate(-592.888 -570.497)"><path class="a" d="M675.388,597.881l-32.5-24.894h-50V685.009h50V660.115l32.5,24.893,32.5-24.893v24.893h50V572.987h-50Z"/><rect class="a" width="50" height="112.022" transform="translate(767.888 572.987)"/><path class="a" d="M1022.888,607.839V577.986a58.856,58.856,0,0,0-85.015,34.163c0-.193.014-.383.014-.576a38.654,38.654,0,0,0-37.5-38.554l0-.031h-72.5V685.009h115l-25-37.34-.875-1.865a38.751,38.751,0,0,0,18.543-21.023c-.1,1.395-.168,2.8-.168,4.217a58.75,58.75,0,1,0,103.869-37.459Z"/><path class="a" d="M1027.888,570.5v24.893l25-24.893Z"/></g><path class="b" d="M429.5,233.5c0-1.418.068-2.822.167-4.216a38.754,38.754,0,0,1-18.543,21.023l.875,1.865,25,37.34H322V177.49h72.5l0,.031A38.654,38.654,0,0,1,432,216.075c0,.193-.012.383-.014.576A58.855,58.855,0,0,1,517,182.489v29.852l16.369-16.3A58.639,58.639,0,1,1,429.5,233.5ZM262,289.511V177.489h50V289.511Zm-60,0V264.617l-32.5,24.894L137,264.617v24.894H87V177.489h50l32.5,24.895L202,177.489h50V289.511ZM522,175h25l-25,24.893Z" transform="translate(-86.999 -175)"/></svg>