<?xml version="1.0" encoding="UTF-8" standalone="no"?>
<svg
   xmlns:dc="http://purl.org/dc/elements/1.1/"
   xmlns:cc="http://creativecommons.org/ns#"
   xmlns:rdf="http://www.w3.org/1999/02/22-rdf-syntax-ns#"
   xmlns:svg="http://www.w3.org/2000/svg"
   xmlns="http://www.w3.org/2000/svg"
   xmlns:sodipodi="http://sodipodi.sourceforge.net/DTD/sodipodi-0.dtd"
   xmlns:inkscape="http://www.inkscape.org/namespaces/inkscape"
   sodipodi:docname="miro_letering.svg"
   inkscape:version="1.0 (4035a4fb49, 2020-05-01)"
   id="svg8"
   version="1.1"
   viewBox="0 0 508 85.083946">
  <defs
     id="defs2" />
  <sodipodi:namedview
     inkscape:window-maximized="1"
     inkscape:window-y="-9"
     inkscape:window-x="-9"
     inkscape:window-height="1001"
     inkscape:window-width="1920"
     fit-margin-bottom="0"
     fit-margin-right="0"
     fit-margin-left="0"
     fit-margin-top="0"
     showgrid="false"
     inkscape:document-rotation="0"
     inkscape:current-layer="layer1"
     inkscape:document-units="mm"
     inkscape:cy="-620.00006"
     inkscape:cx="1354.2857"
     inkscape:zoom="0.35"
     inkscape:pageshadow="2"
     inkscape:pageopacity="0.0"
     borderopacity="1.0"
     bordercolor="#666666"
     pagecolor="#ffffff"
     id="base" />
  <metadata
     id="metadata5">
    <rdf:RDF>
      <cc:Work
         rdf:about="">
        <dc:format>image/svg+xml</dc:format>
        <dc:type
           rdf:resource="http://purl.org/dc/dcmitype/StillImage" />
        <dc:title></dc:title>
      </cc:Work>
    </rdf:RDF>
  </metadata>
  <g
     transform="translate(252.4881,-312.20835)"
     id="layer1"
     inkscape:groupmode="layer"
     inkscape:label="Layer 1">
    <path
       id="path851"
       d="m -252.4881,312.20835 v 84.93125 h 35.98333 v -84.93125 h -35.98333 m 85.19583,0 v 0.26459 l 28.31042,21.69583 h 0.26459 l 14.55208,-11.22479 13.75834,-10.47104 -5.29167,-0.26459 h -11.64167 -39.95209 m 106.097927,0 v 84.93125 h 9.525 v -84.93125 h -9.525 m 56.6208324,0 v 84.93125 h 9.260417 v -84.93125 h -9.260417 m 87.5770826,0 v 0.26459 c 15.05479,3.56745 25.399998,19.82898 25.399998,34.66041 h 0.26458 c 3.53748,-15.29276 17.4334,-29.10631 31.75,-34.66041 l -5.29167,-0.26459 H 123.48482 83.003572 m 99.218748,0 v 0.26459 c 1.66952,0.56871 5.14614,1.64952 6.07748,3.23135 1.05039,1.77901 0.27252,5.8415 0.27252,7.88115 v 19.84375 c 4.10104,-2.88925 7.56443,-7.29973 11.1125,-10.84792 0.89958,-0.89985 2.84691,-3.68946 4.20952,-3.68946 1.12448,0 2.36802,2.35059 2.92629,3.16029 2.50825,3.63011 4.572,7.54142 6.19919,11.64167 5.2705,13.28446 4.82864,28.1387 -0.63765,41.275 -1.82298,4.37938 -4.7969,7.98962 -6.87652,12.17083 h 50.00625 v -84.93125 h -30.42708 -8.46667 l -3.96875,0.27193 -6.35,6.07807 -13.22917,13.22917 v -19.57917 h -10.84791 m -76.46459,48.15417 c -2.43152,8.50397 -9.929808,14.41635 -16.933328,19.05 1.59544,4.67915 5.64092,9.1223 8.37935,13.22916 0.82815,1.24355 1.87855,3.73698 3.309938,4.33838 1.41288,0.59266 3.72798,0.15954 5.24404,0.15954 h 11.64167 c -3.83646,-6.73603 -7.9031,-12.66613 -9.72873,-20.37292 -0.84667,-3.57716 -1.37319,-7.18555 -1.62454,-10.84791 -0.11906,-1.74916 0.39423,-3.92774 -0.2884,-5.55625 z"
       style="fill:#e3e5e3;stroke:none;stroke-width:1" />
    <path
       d=""
       id="path849"
       style="fill:#000000;stroke-width:1" />
  </g>
</svg>
