<?xml version="1.0" encoding="UTF-8" standalone="no"?>
<svg
   xmlns:dc="http://purl.org/dc/elements/1.1/"
   xmlns:cc="http://creativecommons.org/ns#"
   xmlns:rdf="http://www.w3.org/1999/02/22-rdf-syntax-ns#"
   xmlns:svg="http://www.w3.org/2000/svg"
   xmlns="http://www.w3.org/2000/svg"
   width="206.81097mm"
   height="52.74884mm"
   viewBox="0 0 206.81097 52.74884"
   version="1.1"
   id="svg8">
  <defs
     id="defs2" />
  <metadata
     id="metadata5">
    <rdf:RDF>
      <cc:Work
         rdf:about="">
        <dc:format>image/svg+xml</dc:format>
        <dc:type
           rdf:resource="http://purl.org/dc/dcmitype/StillImage" />
        <dc:title></dc:title>
      </cc:Work>
    </rdf:RDF>
  </metadata>
  <g
     id="layer1"
     transform="translate(-16.145847,-186.93457)">
    <path
       style="fill:#aa3861;fill-opacity:1;stroke-width:0.141217"
       d="m 194.53339,239.60353 c -5.68976,-0.45873 -11.28446,-2.8542 -15.45066,-6.61547 -5.11937,-4.6218 -8.06505,-10.50435 -8.74039,-17.45464 -0.0904,-0.93071 -0.13166,-2.21755 -0.0916,-2.85964 0.0401,-0.6421 0.0322,-1.16666 -0.0175,-1.16571 -0.0496,9.9e-4 -0.26378,0.43051 -0.47582,0.95456 -1.15087,2.84423 -4.01069,6.1575 -6.66311,7.71962 -0.47272,0.27841 -0.94463,0.56045 -1.04866,0.62675 -0.15297,0.0975 -0.12999,0.23655 0.12009,0.72676 0.1701,0.33341 2.78151,4.31376 5.80314,8.84522 l 5.49388,8.23902 h -25.7727 -25.77271 v -25.28418 -25.28418 l 17.05195,0.0495 c 16.68241,0.0484 17.0795,0.0559 18.32291,0.34347 4.43958,1.02694 7.92151,3.24397 10.51104,6.69262 2.03035,2.70398 3.39884,6.58433 3.39884,9.63745 0,0.5529 0.0531,0.93841 0.11893,0.8641 0.0654,-0.0738 0.29489,-0.64253 0.50994,-1.26389 1.2484,-3.60709 3.52316,-7.06597 6.59398,-10.02641 2.06549,-1.99124 3.77623,-3.20425 6.34244,-4.49714 7.30526,-3.68049 15.73737,-3.78948 23.11583,-0.29878 l 1.58869,0.7516 v 6.71763 c 0,3.69469 0.0472,6.71763 0.10491,6.71763 0.0577,0 1.73189,-1.62607 3.72039,-3.61347 l 3.61547,-3.61347 0.77915,1.03626 c 2.609,3.46996 4.32462,7.58265 4.9977,11.98057 0.29953,1.95718 0.30015,5.67053 0.001,7.61289 -1.15411,7.50011 -5.24589,13.94844 -11.51263,18.14302 -4.78391,3.20204 -10.8785,4.78323 -16.6448,4.31833 z M 16.145847,213.34215 V 188.0643 H 27.34331 38.540771 l 7.266664,5.58936 c 3.996665,3.07414 7.308106,5.61595 7.358761,5.64847 0.05065,0.0325 3.400432,-2.48269 7.443953,-5.58935 l 7.351858,-5.64848 H 79.123395 90.284783 V 213.34215 238.62 H 79.13024 67.975698 l -0.03691,-5.66514 -0.03691,-5.66514 -7.094017,5.45078 c -3.901709,2.99793 -7.209232,5.52274 -7.350052,5.61068 -0.220961,0.13799 -1.251378,-0.60486 -7.521944,-5.42278 l -7.26591,-5.58268 -0.03691,5.63714 -0.03691,5.63714 H 27.370999 16.145847 Z m 78.799098,0 V 188.0643 h 11.156145 11.15615 V 213.34215 238.62 H 106.10109 94.944945 Z M 211.87264,192.44203 v -5.50746 h 5.54209 5.54209 l -5.50611,5.50746 c -3.02835,3.02911 -5.52229,5.50747 -5.54209,5.50747 -0.0198,0 -0.036,-2.47836 -0.036,-5.50747 z"
       id="path847" />
  </g>
</svg>
