<svg xmlns="http://www.w3.org/2000/svg" width="245" height="236" viewBox="0 0 245 236"><defs><style>.a{fill:#505050;}.b{fill:#fbbf51;}</style></defs><g transform="translate(-593.147 -212.987)"><path class="a" d="M731.969,394.437a75.531,75.531,0,1,1,0-151.061,76.787,76.787,0,0,1,12.652,1.049l-1.4,8.278a68.326,68.326,0,0,0-11.256-.934A67.222,67.222,0,1,0,768,262.185l4.511-7.081a75.5,75.5,0,0,1-40.539,139.333Z"/><path class="a" d="M758.9,257.357a67.3,67.3,0,0,0-6.663-2.491l2.514-8.007a73.967,73.967,0,0,1,7.518,2.811Z"/><path class="a" d="M731.969,415.418c-53.353,0-96.755-43.293-96.755-96.511s43.4-96.511,96.755-96.511,96.754,43.292,96.754,96.511S785.321,415.418,731.969,415.418Zm0-184.631c-48.71,0-88.341,39.532-88.341,88.119s39.631,88.118,88.341,88.118,88.341-39.532,88.341-88.118S780.678,230.788,731.969,230.788Z"/><path class="a" d="M830.268,281.58c-.871-2.316-1.52-3.86-2.547-6.094l7.641-3.508c1.125,2.439,1.832,4.123,2.785,6.651Z"/><path class="a" d="M822.651,265.741a105.679,105.679,0,0,0-53.278-44.912l2.99-7.843A114.13,114.13,0,0,1,829.9,261.48Z"/><path class="a" d="M623.613,448.987a22.05,22.05,0,0,1-22.053-22,21.825,21.825,0,0,1,6.458-15.555l44.137-44.027,5.948,5.933-44.137,44.026a13.624,13.624,0,0,0,19.292,19.243L677.4,392.585l5.948,5.933-44.137,44.027A21.937,21.937,0,0,1,623.613,448.987Z"/><path class="a" d="M765.622,360.868H698.315a8.414,8.414,0,0,1-8.413-8.393V285.337a8.413,8.413,0,0,1,8.413-8.392h67.307a8.413,8.413,0,0,1,8.413,8.392v67.138A8.414,8.414,0,0,1,765.622,360.868Zm-67.307-75.531h-.008l.008,67.138h67.307V285.337Z"/><path class="a" d="M727.762,337.428,709.891,319.6l5.948-5.934,11.922,11.892,24.632-24.57,5.948,5.934Z"/><path class="a" d="M626.8,323.1h-8.413v8.392H626.8V323.1Z"/><path class="a" d="M601.56,348.279h-8.413v8.392h8.413v-8.392Z"/><path class="a" d="M626.8,373.456h-8.413v8.392H626.8v-8.392Z"/><path class="a" d="M609.974,365.064H601.56v8.392h8.413v-8.392Z"/><path class="a" d="M609.974,331.495H601.56v8.392h8.413v-8.392Z"/><path class="a" d="M811.9,398.633h-8.413v8.392H811.9v-8.392Z"/><path class="a" d="M769.829,415.418h-8.413v8.392h8.413v-8.392Z"/><path class="a" d="M820.309,415.418H811.9v8.392h8.413v-8.392Z"/><path class="a" d="M795.069,440.594h-8.413v8.392h8.413v-8.392Z"/><path class="a" d="M778.242,432.2h-8.413v8.392h8.413V432.2Z"/><path class="a" d="M811.9,432.2h-8.413v8.392H811.9V432.2Z"/></g><path class="b" d="M1561.509,1703v-8.393h8.413V1703Zm-185.1-22a21.822,21.822,0,0,1,6.458-15.555l41.758-41.654a95.755,95.755,0,0,1-14.562-50.874c0-53.219,43.4-96.511,96.755-96.511s96.754,43.293,96.754,96.511-43.4,96.511-96.754,96.511a96.36,96.36,0,0,1-51-14.527l-41.757,41.654A22.066,22.066,0,0,1,1376.413,1681Zm12.406-9.622a13.625,13.625,0,0,0,19.292,19.244l40.648-40.547a97.461,97.461,0,0,1-19.292-19.244Zm29.661-98.461c0,48.586,39.631,88.118,88.341,88.118s88.34-39.532,88.34-88.118-39.631-88.119-88.34-88.119S1418.481,1524.333,1418.481,1572.92Zm159.854,121.687v-8.392h8.413v8.392Zm-33.654,0v-8.392h8.413v8.392Zm42.067-16.784v-8.392h8.414v8.392Zm-50.48,0v-8.392h8.413v8.392Zm42.067-16.785v-8.392h8.413v8.392ZM1431.1,1572.92a75.713,75.713,0,0,1,75.722-75.531,76.769,76.769,0,0,1,12.652,1.049l-1.4,8.278a68.274,68.274,0,0,0-11.255-.934,67.22,67.22,0,1,0,36.028,10.416l4.51-7.08a75.6,75.6,0,1,1-116.259,63.8Zm-37.86,62.942v-8.392h8.413v8.392Zm-16.827-8.392v-8.393h8.413v8.393Zm96.755-12.588a8.414,8.414,0,0,1-8.413-8.393v-67.137a8.413,8.413,0,0,1,8.413-8.393h67.307a8.413,8.413,0,0,1,8.413,8.393v67.137a8.414,8.414,0,0,1-8.413,8.393Zm0-8.393h67.307v-67.137H1473.16Zm-105.168,4.2v-8.393h8.413v8.393Zm8.413-16.785v-8.392h8.413v8.392Zm108.331-20.283,5.948-5.934,11.922,11.892L1527.247,1555l5.949,5.934-30.581,30.5Zm-91.5,11.892v-8.392h8.413v8.392Zm209.333-56.009,7.642-3.508c1.125,2.439,1.832,4.123,2.785,6.651l-7.879,2.951C1604.249,1533.278,1603.6,1531.733,1602.573,1529.5Zm-58.347-54.657,2.99-7.843a114.129,114.129,0,0,1,57.534,48.494l-7.247,4.26A105.682,105.682,0,0,0,1544.226,1474.843Zm-17.135,34.037,2.514-8.007a73.97,73.97,0,0,1,7.519,2.812l-3.37,7.686A67.459,67.459,0,0,0,1527.091,1508.88Z" transform="translate(-1368 -1467)"/></svg>