<svg xmlns="http://www.w3.org/2000/svg" width="257" height="266" viewBox="0 0 257 266"><defs><style>.a{fill:#505050;}.b{fill:#fbbf51;}</style></defs><g transform="translate(-1477.75 -1468.526)"><path class="a" d="M1624.607,1661.27h-9.178v9.178h9.178v-9.178Z"/><rect class="a" width="87.362" height="9.178" transform="translate(1596.905 1638.324)"/><path class="a" d="M1516.4,1717.881l-7.941-4.6,11.648-20.136a22.845,22.845,0,0,0,3.532-12.176v-53.479a32.28,32.28,0,0,1,10.4-23.694l18.622-17.133,6.211,6.758-18.621,17.133a23.056,23.056,0,0,0-7.431,16.936v53.479a31.856,31.856,0,0,1-4.849,16.909Z"/><path class="a" d="M1707.215,1505.239h-9.179A27.565,27.565,0,0,0,1670.5,1477.7h-32.125v-9.179H1670.5A36.757,36.757,0,0,1,1707.215,1505.239ZM1629.2,1477.7h-9.179v-9.179h9.179Z"/><path class="a" d="M1670.5,1693.394H1577.19v-9.178H1670.5a9.19,9.19,0,0,0,9.178-9.178v-169.8a9.189,9.189,0,0,0-9.178-9.178H1569.536a9.19,9.19,0,0,0-9.179,9.178v36.714h-9.178v-36.714a18.375,18.375,0,0,1,18.357-18.357H1670.5a18.375,18.375,0,0,1,18.357,18.357v169.8A18.375,18.375,0,0,1,1670.5,1693.394Z"/><path class="a" d="M1601.661,1610.794a9.2,9.2,0,0,1-9.049-10.694l3.725-15.21-10.671-9.277a9.171,9.171,0,0,1,6.821-15.305h13.382l5.732-12.858a9.039,9.039,0,0,1,8.417-5.5,9.139,9.139,0,0,1,8.466,5.659l5.679,12.7h13.387a9.172,9.172,0,0,1,6.821,15.305l-.408.4-10.263,8.87,3.652,14.874a9.206,9.206,0,0,1-3.662,9.322,9.1,9.1,0,0,1-9.7.578l-13.97-7.44-14.009,7.462A9.048,9.048,0,0,1,1601.661,1610.794Zm-9.1-41.307,14.032,12.136-5,20.324,18.424-10.124,18.322,9.756-4.894-19.957,14.046-12.149-19.281.013-8.157-18.245-8.224,18.245Z"/><path class="a" d="M1652.138,1564.9h-9.179l0-32.124h-45.893l0,32.124H1587.9l0-41.3h64.25Z"/><path class="a" d="M1514.464,1491.472h-9.179v9.178h9.179v-9.178Z"/><path class="a" d="M1532.821,1500.65h-9.179v9.178h9.179v-9.178Z"/><path class="a" d="M1486.928,1519.007h-9.179v9.178h9.179v-9.178Z"/><path class="a" d="M1542,1519.007h-9.179v9.178H1542v-9.178Z"/><path class="a" d="M1514.464,1546.541h-9.179v9.178h9.179v-9.178Z"/><path class="a" d="M1496.107,1537.363h-9.179v9.178h9.179v-9.178Z"/><path class="a" d="M1532.821,1537.363h-9.179v9.178h9.179v-9.178Z"/><path class="a" d="M1496.107,1500.65h-9.179v9.178h9.179v-9.178Z"/><path class="a" d="M1707.214,1551.131h-9.179v9.178h9.179v-9.178Z"/><path class="a" d="M1725.571,1560.309h-9.179v9.178h9.179v-9.178Z"/><path class="a" d="M1734.75,1578.665h-9.179v9.178h9.179v-9.178Z"/><path class="a" d="M1707.214,1606.2h-9.179v9.178h9.179V1606.2Z"/><path class="a" d="M1725.571,1597.022h-9.179v9.178h9.179v-9.178Z"/><path class="a" d="M1707.214,1665.859h-9.179v9.178h9.179v-9.178Z"/><path class="a" d="M1716.393,1684.216h-9.178v9.178h9.178v-9.178Z"/><path class="a" d="M1688.857,1711.751h-9.179v9.178h9.179v-9.178Z"/><path class="a" d="M1670.5,1702.572h-9.178v9.178h9.178v-9.178Z"/><path class="a" d="M1707.214,1702.572h-9.179v9.178h9.179v-9.178Z"/><path class="a" d="M1553.468,1734.526l-8.04-4.437,16.493-29.888a33.994,33.994,0,0,1,6.095-8.094c7.184-6.951,12.043-14.753,14.436-23.193,1.179-4.181,2.411-7.892,3.765-11.338l10.339-26.325a5.022,5.022,0,0,0,.516-2.106,4.571,4.571,0,0,0-8.457-2.424l-15.372,24.38a11.952,11.952,0,0,1-22.063-6.374V1537.363h9.178v107.365a2.776,2.776,0,0,0,5.123,1.479l15.368-24.38a13.747,13.747,0,0,1,24.161,13l-10.25,26.106c-1.236,3.16-2.375,6.592-3.478,10.482-2.842,10.026-8.524,19.2-16.887,27.293a24.861,24.861,0,0,0-4.432,5.933Z"/></g><path class="b" d="M890.678,1723.563l16.493-29.887a33.969,33.969,0,0,1,6.095-8.094c7.184-6.951,12.043-14.754,14.436-23.193,1.179-4.181,2.411-7.892,3.765-11.338l10.339-26.325a5.015,5.015,0,0,0,.516-2.106,4.571,4.571,0,0,0-8.457-2.424l-15.373,24.38a11.952,11.952,0,0,1-22.063-6.374v-44.225L885.5,1604.03a23.057,23.057,0,0,0-7.431,16.935v53.48a31.851,31.851,0,0,1-4.849,16.908l-11.567,20-7.942-4.6,11.648-20.136a22.842,22.842,0,0,0,3.532-12.176v-53.48a32.28,32.28,0,0,1,10.4-23.693l17.138-15.767v-82.792a18.376,18.376,0,0,1,18.357-18.357H1015.75a18.376,18.376,0,0,1,18.357,18.357v169.8a18.374,18.374,0,0,1-18.357,18.355H924.618a72.061,72.061,0,0,1-4.974,5.312,24.865,24.865,0,0,0-4.432,5.933L898.718,1728Zm49.331-69.16c-1.237,3.16-2.375,6.593-3.478,10.482a56.25,56.25,0,0,1-5.436,12.8h84.655a9.19,9.19,0,0,0,9.178-9.178v-27.536H945.281Zm-34.4-155.69V1638.2a2.776,2.776,0,0,0,5.124,1.48L926.1,1615.3a13.747,13.747,0,0,1,24.161,13l-1.374,3.5h76.044V1498.713a9.19,9.19,0,0,0-9.178-9.178H914.785A9.191,9.191,0,0,0,905.606,1498.713ZM1024.928,1714.4v-9.178h9.179v9.178Zm18.357-9.178v-9.178h9.179v9.178Zm-36.715,0v-9.178h9.179v9.178Zm45.894-18.356v-9.178h9.178v9.178Zm-9.179-18.356v-9.178h9.179v9.178Zm-82.607-4.589v-9.178h9.179v9.178Zm82.607-55.07v-9.178h9.179v9.178Zm-101.691-6.3a9.1,9.1,0,0,1-3.733-8.982l3.725-15.209-10.671-9.277a9.206,9.206,0,0,1,2.232-14.1l0-37.92h64.25l0,37.92a9.208,9.208,0,0,1,2.232,14.1l-.409.4-10.263,8.87,3.652,14.873a9.207,9.207,0,0,1-3.661,9.322,9.1,9.1,0,0,1-9.7.578l-13.971-7.439-14.009,7.462a9.047,9.047,0,0,1-4.347,1.112A9.156,9.156,0,0,1,941.594,1602.556ZM951.84,1575.1l-5,20.325,18.424-10.124,18.322,9.756L978.7,1575.1l14.045-12.149-19.28.014-8.158-18.245-8.223,18.245H937.808Zm21.893-34.011,5.679,12.7h8.8l0-27.535H942.321l0,27.535h8.794l5.733-12.857a9.037,9.037,0,0,1,8.416-5.5A9.14,9.14,0,0,1,973.733,1541.086Zm87.909,58.588V1590.5h9.178v9.178Zm9.178-18.356v-9.178H1080v9.178Zm-9.178-18.356v-9.179h9.178v9.179Zm-18.357-9.179V1544.6h9.179v9.178Zm-192.75-4.589v-9.178h9.179v9.178Zm18.357-9.178v-9.178h9.179v9.178Zm-36.714,0v-9.178h9.178v9.178Zm45.893-18.356v-9.178h9.178v9.178Zm-55.072,0v-9.178h9.179v9.178Zm45.893-18.356v-9.178h9.179v9.178Zm-36.714,0v-9.178h9.178v9.178Zm211.107-4.589a27.565,27.565,0,0,0-27.535-27.535H983.624V1462h32.125a36.757,36.757,0,0,1,36.715,36.714Zm-192.75-4.589v-9.178h9.179v9.178Zm114.732-22.946V1462h9.179v9.179Z" transform="translate(-823 -1462)"/></svg>